<?xml version="1.0" encoding="utf-8"?>
<!-- Generator: Adobe Illustrator 16.2.1, SVG Export Plug-In . SVG Version: 6.00 Build 0)  -->
<!DOCTYPE svg PUBLIC "-//W3C//DTD SVG 1.1//EN" "http://www.w3.org/Graphics/SVG/1.1/DTD/svg11.dtd">
<svg version="1.1" id="Layer_1" xmlns="http://www.w3.org/2000/svg" xmlns:xlink="http://www.w3.org/1999/xlink" x="0px" y="0px"
	 width="128px" height="128px" viewBox="0 0 128 128" enable-background="new 0 0 128 128" xml:space="preserve">
<g>
	<path fill="#D38417" d="M113,36c0-8.836-7.163-16-16-16s-16,7.164-16,16c0,1.384,0.194,2.719,0.524,4h8.555
		C89.396,38.822,89,37.459,89,36c0-4.418,3.582-8,8-8s8,3.582,8,8c0,2.191-0.883,4.175-2.31,5.619l-2.474-2.473v10.72h10.721
		l-2.59-2.59C111.222,44.384,113,40.4,113,36z"/>
</g>
<g>
	<g>
		<path fill="#FBB040" d="M120,96.001l-12-12v4H96.871c-4.525,6.938-10.952,12.516-18.545,16H108v4L120,96.001z"/>
	</g>
	<g>
		<g>
			<path fill="#FBB040" d="M60,24c-22.091,0-40,17.908-40,40c0,4.798,0.847,9.397,2.396,13.66l-3.779,1.374l15.378,7.176
				l7.177-15.377l-3.736,1.358C36.508,69.635,36,66.877,36,64c0-13.255,10.745-24,24-24s24,10.745,24,24S73.255,88.001,60,88.001H12
				v16h48c22.092,0,40-17.908,40-40.001C100,41.908,82.092,24,60,24z"/>
		</g>
	</g>
</g>
</svg>
